<svg width="13" height="23" viewBox="0 0 13 23" version="1.1" xmlns="http://www.w3.org/2000/svg"><title>Arrow-right - simple-line-icons</title><g id="Homepage" stroke="none" stroke-width="1" fill="none" fill-rule="evenodd"><g id="Issue-&amp;gt;-Ind.-Issue-&amp;gt;-Story" transform="translate(-576 -5292)" fill="#4A4A4A"><path d="M577.404 5314.354a.801.801 0 0 1-.29-.054.703.703 0 0 1-.247-.161.703.703 0 0 1-.215-.516c0-.2.071-.372.215-.516l9.818-9.818-9.668-9.646a.716.716 0 0 1-.215-.527c0-.207.072-.383.215-.526a.716.716 0 0 1 .526-.215c.208 0 .384.072.527.215l10.162 10.183a.703.703 0 0 1 .215.516c0 .2-.072.372-.215.516l-10.313 10.334a.747.747 0 0 1-.516.215z" id="Arrow-right---simple-line-icons"/></g></g></svg>