<svg width="1024" height="838" viewBox="0 0 1024 838" version="1.1" xmlns="http://www.w3.org/2000/svg"><title>black_triangle_pattern</title><g id="New-Revisions" stroke="none" stroke-width="1" fill="none" fill-rule="evenodd"><g id="Homepage-with-Revisions-v2" transform="translate(0 -2066)" fill="#000" fill-rule="nonzero"><g id="black_triangle_pattern" transform="matrix(-1 0 0 1 1066 2066)"><g id="pattern" transform="translate(728)"><path id="Shape" d="M0 476h11L0 464.764zM0 322.781h13L0 309.502zM0 38.815h13L0 25.536zM0 103.167h13L0 89.888zM13 283.966v13.279h13M13 155.262v13.279h13M13 399.39v13.28h13M25 141.983v13.279h13M38 438.206v13.279h13M38 219.614v13.279h13M38 38.815v13.28h13M50 361.597v13.279h13M63 77.63v13.28h13M75 128.704v13.279h13M75 322.781v13.28h13M88 52.094v13.28h13M88 0v13.279h13zM100 476h11l-11-11.236zM100 412.67v13.278h13M100 296.223v13.28h13M100 219.614v13.279h13M113 245.15v13.28h13M113 141.983v13.279h13M138 103.167v13.28h13M150 361.597v13.279h13M150 89.888v13.28h13M150 38.815v13.28h13M163 387.133v13.279h13M163 128.704v13.279h13M163 193.056v13.279h13M175 438.206v13.279h13M175 13.279v13.279h13M188 309.502v13.28h13M200 361.597v13.279h13M200 245.15v13.28h13M213 258.43v13.278h13M213 231.871v13.28h13M213 155.262v13.279h13M225 412.67v13.278h13M238 206.335v13.279h13M238 25.536v13.28h13M250 373.854v13.279h13M250 89.888v13.28h13M263 231.871v13.28h13M275 180.798v13.28h13M275 0v13.279h13zM275 451.485v13.279h13M275 322.781v13.28h13M288 52.094v13.28h13M300 335.039v13.279h13M313 231.871v13.28h13M325 77.63h13l-13-13.278z"/></g><g id="pattern-copy-3" transform="translate(728 362)"><path id="Shape" d="M0 476h11L0 464.764zM0 322.781h13L0 309.502zM0 38.815h13L0 25.536zM0 103.167h13L0 89.888zM13 283.966v13.279h13M13 155.262v13.279h13M13 399.39v13.28h13M25 141.983v13.279h13M38 438.206v13.279h13M38 219.614v13.279h13M38 38.815v13.28h13M50 361.597v13.279h13M63 77.63v13.28h13M75 128.704v13.279h13M75 322.781v13.28h13M88 52.094v13.28h13M88 0v13.279h13zM100 476h11l-11-11.236zM100 412.67v13.278h13M100 296.223v13.28h13M100 219.614v13.279h13M113 245.15v13.28h13M113 141.983v13.279h13M138 103.167v13.28h13M150 361.597v13.279h13M150 89.888v13.28h13M150 38.815v13.28h13M163 387.133v13.279h13M163 128.704v13.279h13M163 193.056v13.279h13M175 438.206v13.279h13M175 13.279v13.279h13M188 309.502v13.28h13M200 361.597v13.279h13M200 245.15v13.28h13M213 258.43v13.278h13M213 231.871v13.28h13M213 155.262v13.279h13M225 412.67v13.278h13M238 206.335v13.279h13M238 25.536v13.28h13M250 373.854v13.279h13M250 89.888v13.28h13M263 231.871v13.28h13M275 180.798v13.28h13M275 0v13.279h13zM275 451.485v13.279h13M275 322.781v13.28h13M288 52.094v13.28h13M300 335.039v13.279h13M313 231.871v13.28h13M325 77.63h13l-13-13.278z"/></g><g id="pattern-copy" transform="translate(374 55)"><path id="Shape" d="M0 476h11L0 464.764zM0 322.781h13L0 309.502zM0 38.815h13L0 25.536zM0 103.167h13L0 89.888zM13 283.966v13.279h13M13 155.262v13.279h13M13 399.39v13.28h13M25 141.983v13.279h13M38 438.206v13.279h13M38 219.614v13.279h13M38 38.815v13.28h13M50 361.597v13.279h13M63 77.63v13.28h13M75 128.704v13.279h13M75 322.781v13.28h13M88 52.094v13.28h13M88 0v13.279h13zM100 476h11l-11-11.236zM100 412.67v13.278h13M100 296.223v13.28h13M100 219.614v13.279h13M113 245.15v13.28h13M113 141.983v13.279h13M138 103.167v13.28h13M150 361.597v13.279h13M150 89.888v13.28h13M150 38.815v13.28h13M163 387.133v13.279h13M163 128.704v13.279h13M163 193.056v13.279h13M175 438.206v13.279h13M175 13.279v13.279h13M188 309.502v13.28h13M200 361.597v13.279h13M200 245.15v13.28h13M213 258.43v13.278h13M213 231.871v13.28h13M213 155.262v13.279h13M225 412.67v13.278h13M238 206.335v13.279h13M238 25.536v13.28h13M250 373.854v13.279h13M250 89.888v13.28h13M263 231.871v13.28h13M275 180.798v13.28h13M275 0v13.279h13zM275 451.485v13.279h13M275 322.781v13.28h13M288 52.094v13.28h13M300 335.039v13.279h13M313 231.871v13.28h13M325 77.63h13l-13-13.278z"/></g><g id="pattern-copy-4" transform="translate(374 354)"><path id="Shape" d="M0 476h11L0 464.764zM0 322.781h13L0 309.502zM0 38.815h13L0 25.536zM0 103.167h13L0 89.888zM13 283.966v13.279h13M13 155.262v13.279h13M13 399.39v13.28h13M25 141.983v13.279h13M38 438.206v13.279h13M38 219.614v13.279h13M38 38.815v13.28h13M50 361.597v13.279h13M63 77.63v13.28h13M75 128.704v13.279h13M75 322.781v13.28h13M88 52.094v13.28h13M88 0v13.279h13zM100 476h11l-11-11.236zM100 412.67v13.278h13M100 296.223v13.28h13M100 219.614v13.279h13M113 245.15v13.28h13M113 141.983v13.279h13M138 103.167v13.28h13M150 361.597v13.279h13M150 89.888v13.28h13M150 38.815v13.28h13M163 387.133v13.279h13M163 128.704v13.279h13M163 193.056v13.279h13M175 438.206v13.279h13M175 13.279v13.279h13M188 309.502v13.28h13M200 361.597v13.279h13M200 245.15v13.28h13M213 258.43v13.278h13M213 231.871v13.28h13M213 155.262v13.279h13M225 412.67v13.278h13M238 206.335v13.279h13M238 25.536v13.28h13M250 373.854v13.279h13M250 89.888v13.28h13M263 231.871v13.28h13M275 180.798v13.28h13M275 0v13.279h13zM275 451.485v13.279h13M275 322.781v13.28h13M288 52.094v13.28h13M300 335.039v13.279h13M313 231.871v13.28h13M325 77.63h13l-13-13.278z"/></g><g id="pattern-copy-2" transform="translate(0 15)"><path id="Shape" d="M38 438.206v13.279h13M38 219.614v13.279h13M38 38.815v13.28h13M50 361.597v13.279h13M63 77.63v13.28h13M75 128.704v13.279h13M75 322.781v13.28h13M88 52.094v13.28h13M88 0v13.279h13zM100 476h11l-11-11.236zM100 412.67v13.278h13M100 296.223v13.28h13M100 219.614v13.279h13M113 245.15v13.28h13M113 141.983v13.279h13M138 103.167v13.28h13M150 361.597v13.279h13M150 89.888v13.28h13M150 38.815v13.28h13M163 387.133v13.279h13M163 128.704v13.279h13M163 193.056v13.279h13M175 438.206v13.279h13M175 13.279v13.279h13M188 309.502v13.28h13M200 361.597v13.279h13M200 245.15v13.28h13M213 258.43v13.278h13M213 231.871v13.28h13M213 155.262v13.279h13M225 412.67v13.278h13M238 206.335v13.279h13M238 25.536v13.28h13M250 373.854v13.279h13M250 89.888v13.28h13M263 231.871v13.28h13M275 180.798v13.28h13M275 0v13.279h13zM275 451.485v13.279h13M275 322.781v13.28h13M288 52.094v13.28h13M300 335.039v13.279h13M313 231.871v13.28h13M325 77.63h13l-13-13.278z"/></g><g id="pattern-copy-6" transform="translate(0 354)"><path id="Shape" d="M38 438.206v13.279h13M38 219.614v13.279h13M38 38.815v13.28h13M50 361.597v13.279h13M63 77.63v13.28h13M75 128.704v13.279h13M75 322.781v13.28h13M88 52.094v13.28h13M88 0v13.279h13zM100 476h11l-11-11.236zM100 412.67v13.278h13M100 296.223v13.28h13M100 219.614v13.279h13M113 245.15v13.28h13M113 141.983v13.279h13M138 103.167v13.28h13M150 361.597v13.279h13M150 89.888v13.28h13M150 38.815v13.28h13M163 387.133v13.279h13M163 128.704v13.279h13M163 193.056v13.279h13M175 438.206v13.279h13M175 13.279v13.279h13M188 309.502v13.28h13M200 361.597v13.279h13M200 245.15v13.28h13M213 258.43v13.278h13M213 231.871v13.28h13M213 155.262v13.279h13M225 412.67v13.278h13M238 206.335v13.279h13M238 25.536v13.28h13M250 373.854v13.279h13M250 89.888v13.28h13M263 231.871v13.28h13M275 180.798v13.28h13M275 0v13.279h13zM275 451.485v13.279h13M275 322.781v13.28h13M288 52.094v13.28h13M300 335.039v13.279h13M313 231.871v13.28h13M325 77.63h13l-13-13.278z"/></g></g></g></g></svg>