<svg width="21" height="17" viewBox="0 0 21 17" version="1.1" xmlns="http://www.w3.org/2000/svg"><title>Menu - simple-line-icons</title><g id="Symbols" stroke="none" stroke-width="1" fill="none" fill-rule="evenodd"><g id="Nav-Bar" transform="translate(-975 -50)" fill="#FFF"><g id="Group-2"><path d="M975.554 52.291a1.068 1.068 0 0 1-.185-.297.962.962 0 0 1-.061-.36c0-.122.02-.238.061-.348a.797.797 0 0 1 .472-.472.985.985 0 0 1 .348-.061h18.724c.123 0 .24.02.349.061a.797.797 0 0 1 .471.472c.041.11.062.226.062.349 0 .136-.02.256-.062.359a1.068 1.068 0 0 1-.184.297.797.797 0 0 1-.287.185.985.985 0 0 1-.349.061H976.19a.985.985 0 0 1-.348-.061.797.797 0 0 1-.287-.185zm19.995 5.845a.797.797 0 0 1 .184.287c.041.11.062.225.062.348 0 .124-.02.24-.062.35a.797.797 0 0 1-.471.47.985.985 0 0 1-.349.062H976.19a.985.985 0 0 1-.348-.061.797.797 0 0 1-.472-.472.985.985 0 0 1-.061-.349c0-.123.02-.239.061-.348a.797.797 0 0 1 .472-.472.985.985 0 0 1 .348-.061h18.724c.123 0 .24.02.349.061.11.041.205.103.287.185zm0 7.116a.797.797 0 0 1 .184.287c.041.11.062.226.062.349 0 .136-.02.256-.062.359a1.068 1.068 0 0 1-.184.297.797.797 0 0 1-.287.185.985.985 0 0 1-.349.061H976.19a.985.985 0 0 1-.348-.061.797.797 0 0 1-.287-.185 1.068 1.068 0 0 1-.185-.297.962.962 0 0 1-.061-.36c0-.122.02-.239.061-.348a.797.797 0 0 1 .472-.472.985.985 0 0 1 .348-.061h18.724c.123 0 .24.02.349.061.11.041.205.103.287.185z" id="Menu---simple-line-icons"/></g></g></g></svg>