<?xml version="1.0" encoding="UTF-8"?>
<svg width="13px" height="23px" viewBox="0 0 13 23" version="1.1" xmlns="http://www.w3.org/2000/svg" xmlns:xlink="http://www.w3.org/1999/xlink">
    <!-- Generator: Sketch 51.2 (57519) - http://www.bohemiancoding.com/sketch -->
    <title>Arrow-right - simple-line-icons</title>
    <desc>Created with Sketch.</desc>
    <defs></defs>
    <g id="Homepage" stroke="none" stroke-width="1" fill="none" fill-rule="evenodd">
        <g id="Issue-&gt;-Ind.-Issue-&gt;-Story" transform="translate(-576.000000, -5292.000000)" fill="#4A4A4A">
            <path d="M577.40375,5314.35352 C577.303489,5314.35352 577.20681,5314.33561 577.113711,5314.2998 C577.020612,5314.264 576.938256,5314.21029 576.866641,5314.13867 C576.723411,5313.99544 576.651797,5313.82357 576.651797,5313.62305 C576.651797,5313.42253 576.723411,5313.25065 576.866641,5313.10742 L586.685,5303.28906 L577.017031,5293.64258 C576.873801,5293.49935 576.802187,5293.32389 576.802187,5293.11621 C576.802187,5292.90853 576.873801,5292.73307 577.017031,5292.58984 C577.160261,5292.44661 577.335715,5292.375 577.543398,5292.375 C577.751082,5292.375 577.926536,5292.44661 578.069766,5292.58984 L588.231875,5302.77344 C588.375105,5302.91667 588.446719,5303.08854 588.446719,5303.28906 C588.446719,5303.48958 588.375105,5303.66146 588.231875,5303.80469 L577.919375,5314.13867 C577.84776,5314.21029 577.765404,5314.264 577.672305,5314.2998 C577.579205,5314.33561 577.489688,5314.35352 577.40375,5314.35352 Z" id="Arrow-right---simple-line-icons"></path>
        </g>
    </g>
</svg>