<?xml version="1.0" encoding="UTF-8"?>
<svg width="1024px" height="838px" viewBox="0 0 1024 838" version="1.1" xmlns="http://www.w3.org/2000/svg" xmlns:xlink="http://www.w3.org/1999/xlink">
    <!-- Generator: Sketch 51.2 (57519) - http://www.bohemiancoding.com/sketch -->
    <title>black_triangle_pattern</title>
    <desc>Created with Sketch.</desc>
    <defs></defs>
    <g id="New-Revisions" stroke="none" stroke-width="1" fill="none" fill-rule="evenodd">
        <g id="Homepage-with-Revisions-v2" transform="translate(0.000000, -2066.000000)" fill="#000000" fill-rule="nonzero">
            <g id="black_triangle_pattern" transform="translate(533.000000, 2485.000000) scale(-1, 1) translate(-533.000000, -2485.000000) translate(0.000000, 2066.000000)">
                <g id="pattern" transform="translate(728.000000, 0.000000)">
                    <polygon id="Shape" points="0 476 11 476 0 464.763948"></polygon>
                    <polygon id="Shape" points="0 322.781116 13 322.781116 0 309.502146"></polygon>
                    <polygon id="Shape" points="0 38.8154506 13 38.8154506 0 25.5364807"></polygon>
                    <polygon id="Shape" points="0 103.167382 13 103.167382 0 89.888412"></polygon>
                    <polyline id="Shape" points="13 283.965665 13 297.244635 26 297.244635"></polyline>
                    <polyline id="Shape" points="13 155.261803 13 168.540773 26 168.540773"></polyline>
                    <polyline id="Shape" points="13 399.390558 13 412.669528 26 412.669528"></polyline>
                    <polyline id="Shape" points="25 141.982833 25 155.261803 38 155.261803"></polyline>
                    <polyline id="Shape" points="38 438.206009 38 451.484979 51 451.484979"></polyline>
                    <polyline id="Shape" points="38 219.613734 38 232.892704 51 232.892704"></polyline>
                    <polyline id="Shape" points="38 38.8154506 38 52.0944206 51 52.0944206"></polyline>
                    <polyline id="Shape" points="50 361.596567 50 374.875536 63 374.875536"></polyline>
                    <polyline id="Shape" points="63 77.6309013 63 90.9098712 76 90.9098712"></polyline>
                    <polyline id="Shape" points="75 128.703863 75 141.982833 88 141.982833"></polyline>
                    <polyline id="Shape" points="75 322.781116 75 336.060086 88 336.060086"></polyline>
                    <polyline id="Shape" points="88 52.0944206 88 65.3733906 101 65.3733906"></polyline>
                    <polygon id="Shape" points="88 0 88 13.27897 101 13.27897"></polygon>
                    <polygon id="Shape" points="100 476 111 476 100 464.763948"></polygon>
                    <polyline id="Shape" points="100 412.669528 100 425.948498 113 425.948498"></polyline>
                    <polyline id="Shape" points="100 296.223176 100 309.502146 113 309.502146"></polyline>
                    <polyline id="Shape" points="100 219.613734 100 232.892704 113 232.892704"></polyline>
                    <polyline id="Shape" points="113 245.150215 113 258.429185 126 258.429185"></polyline>
                    <polyline id="Shape" points="113 141.982833 113 155.261803 126 155.261803"></polyline>
                    <polyline id="Shape" points="138 103.167382 138 116.446352 151 116.446352"></polyline>
                    <polyline id="Shape" points="150 361.596567 150 374.875536 163 374.875536"></polyline>
                    <polyline id="Shape" points="150 89.888412 150 103.167382 163 103.167382"></polyline>
                    <polyline id="Shape" points="150 38.8154506 150 52.0944206 163 52.0944206"></polyline>
                    <polyline id="Shape" points="163 387.133047 163 400.412017 176 400.412017"></polyline>
                    <polyline id="Shape" points="163 128.703863 163 141.982833 176 141.982833"></polyline>
                    <polyline id="Shape" points="163 193.055794 163 206.334764 176 206.334764"></polyline>
                    <polyline id="Shape" points="175 438.206009 175 451.484979 188 451.484979"></polyline>
                    <polyline id="Shape" points="175 13.27897 175 26.5579399 188 26.5579399"></polyline>
                    <polyline id="Shape" points="188 309.502146 188 322.781116 201 322.781116"></polyline>
                    <polyline id="Shape" points="200 361.596567 200 374.875536 213 374.875536"></polyline>
                    <polyline id="Shape" points="200 245.150215 200 258.429185 213 258.429185"></polyline>
                    <polyline id="Shape" points="213 258.429185 213 271.708155 226 271.708155"></polyline>
                    <polyline id="Shape" points="213 231.871245 213 245.150215 226 245.150215"></polyline>
                    <polyline id="Shape" points="213 155.261803 213 168.540773 226 168.540773"></polyline>
                    <polyline id="Shape" points="225 412.669528 225 425.948498 238 425.948498"></polyline>
                    <polyline id="Shape" points="238 206.334764 238 219.613734 251 219.613734"></polyline>
                    <polyline id="Shape" points="238 25.5364807 238 38.8154506 251 38.8154506"></polyline>
                    <polyline id="Shape" points="250 373.854077 250 387.133047 263 387.133047"></polyline>
                    <polyline id="Shape" points="250 89.888412 250 103.167382 263 103.167382"></polyline>
                    <polyline id="Shape" points="263 231.871245 263 245.150215 276 245.150215"></polyline>
                    <polyline id="Shape" points="275 180.798283 275 194.077253 288 194.077253"></polyline>
                    <polygon id="Shape" points="275 0 275 13.27897 288 13.27897"></polygon>
                    <polyline id="Shape" points="275 451.484979 275 464.763948 288 464.763948"></polyline>
                    <polyline id="Shape" points="275 322.781116 275 336.060086 288 336.060086"></polyline>
                    <polyline id="Shape" points="288 52.0944206 288 65.3733906 301 65.3733906"></polyline>
                    <polyline id="Shape" points="300 335.038627 300 348.317597 313 348.317597"></polyline>
                    <polyline id="Shape" points="313 231.871245 313 245.150215 326 245.150215"></polyline>
                    <polygon id="Shape" points="325 77.6309013 338 77.6309013 325 64.3519313"></polygon>
                </g>
                <g id="pattern-copy-3" transform="translate(728.000000, 362.000000)">
                    <polygon id="Shape" points="0 476 11 476 0 464.763948"></polygon>
                    <polygon id="Shape" points="0 322.781116 13 322.781116 0 309.502146"></polygon>
                    <polygon id="Shape" points="0 38.8154506 13 38.8154506 0 25.5364807"></polygon>
                    <polygon id="Shape" points="0 103.167382 13 103.167382 0 89.888412"></polygon>
                    <polyline id="Shape" points="13 283.965665 13 297.244635 26 297.244635"></polyline>
                    <polyline id="Shape" points="13 155.261803 13 168.540773 26 168.540773"></polyline>
                    <polyline id="Shape" points="13 399.390558 13 412.669528 26 412.669528"></polyline>
                    <polyline id="Shape" points="25 141.982833 25 155.261803 38 155.261803"></polyline>
                    <polyline id="Shape" points="38 438.206009 38 451.484979 51 451.484979"></polyline>
                    <polyline id="Shape" points="38 219.613734 38 232.892704 51 232.892704"></polyline>
                    <polyline id="Shape" points="38 38.8154506 38 52.0944206 51 52.0944206"></polyline>
                    <polyline id="Shape" points="50 361.596567 50 374.875536 63 374.875536"></polyline>
                    <polyline id="Shape" points="63 77.6309013 63 90.9098712 76 90.9098712"></polyline>
                    <polyline id="Shape" points="75 128.703863 75 141.982833 88 141.982833"></polyline>
                    <polyline id="Shape" points="75 322.781116 75 336.060086 88 336.060086"></polyline>
                    <polyline id="Shape" points="88 52.0944206 88 65.3733906 101 65.3733906"></polyline>
                    <polygon id="Shape" points="88 0 88 13.27897 101 13.27897"></polygon>
                    <polygon id="Shape" points="100 476 111 476 100 464.763948"></polygon>
                    <polyline id="Shape" points="100 412.669528 100 425.948498 113 425.948498"></polyline>
                    <polyline id="Shape" points="100 296.223176 100 309.502146 113 309.502146"></polyline>
                    <polyline id="Shape" points="100 219.613734 100 232.892704 113 232.892704"></polyline>
                    <polyline id="Shape" points="113 245.150215 113 258.429185 126 258.429185"></polyline>
                    <polyline id="Shape" points="113 141.982833 113 155.261803 126 155.261803"></polyline>
                    <polyline id="Shape" points="138 103.167382 138 116.446352 151 116.446352"></polyline>
                    <polyline id="Shape" points="150 361.596567 150 374.875536 163 374.875536"></polyline>
                    <polyline id="Shape" points="150 89.888412 150 103.167382 163 103.167382"></polyline>
                    <polyline id="Shape" points="150 38.8154506 150 52.0944206 163 52.0944206"></polyline>
                    <polyline id="Shape" points="163 387.133047 163 400.412017 176 400.412017"></polyline>
                    <polyline id="Shape" points="163 128.703863 163 141.982833 176 141.982833"></polyline>
                    <polyline id="Shape" points="163 193.055794 163 206.334764 176 206.334764"></polyline>
                    <polyline id="Shape" points="175 438.206009 175 451.484979 188 451.484979"></polyline>
                    <polyline id="Shape" points="175 13.27897 175 26.5579399 188 26.5579399"></polyline>
                    <polyline id="Shape" points="188 309.502146 188 322.781116 201 322.781116"></polyline>
                    <polyline id="Shape" points="200 361.596567 200 374.875536 213 374.875536"></polyline>
                    <polyline id="Shape" points="200 245.150215 200 258.429185 213 258.429185"></polyline>
                    <polyline id="Shape" points="213 258.429185 213 271.708155 226 271.708155"></polyline>
                    <polyline id="Shape" points="213 231.871245 213 245.150215 226 245.150215"></polyline>
                    <polyline id="Shape" points="213 155.261803 213 168.540773 226 168.540773"></polyline>
                    <polyline id="Shape" points="225 412.669528 225 425.948498 238 425.948498"></polyline>
                    <polyline id="Shape" points="238 206.334764 238 219.613734 251 219.613734"></polyline>
                    <polyline id="Shape" points="238 25.5364807 238 38.8154506 251 38.8154506"></polyline>
                    <polyline id="Shape" points="250 373.854077 250 387.133047 263 387.133047"></polyline>
                    <polyline id="Shape" points="250 89.888412 250 103.167382 263 103.167382"></polyline>
                    <polyline id="Shape" points="263 231.871245 263 245.150215 276 245.150215"></polyline>
                    <polyline id="Shape" points="275 180.798283 275 194.077253 288 194.077253"></polyline>
                    <polygon id="Shape" points="275 0 275 13.27897 288 13.27897"></polygon>
                    <polyline id="Shape" points="275 451.484979 275 464.763948 288 464.763948"></polyline>
                    <polyline id="Shape" points="275 322.781116 275 336.060086 288 336.060086"></polyline>
                    <polyline id="Shape" points="288 52.0944206 288 65.3733906 301 65.3733906"></polyline>
                    <polyline id="Shape" points="300 335.038627 300 348.317597 313 348.317597"></polyline>
                    <polyline id="Shape" points="313 231.871245 313 245.150215 326 245.150215"></polyline>
                    <polygon id="Shape" points="325 77.6309013 338 77.6309013 325 64.3519313"></polygon>
                </g>
                <g id="pattern-copy" transform="translate(374.000000, 55.000000)">
                    <polygon id="Shape" points="0 476 11 476 0 464.763948"></polygon>
                    <polygon id="Shape" points="0 322.781116 13 322.781116 0 309.502146"></polygon>
                    <polygon id="Shape" points="0 38.8154506 13 38.8154506 0 25.5364807"></polygon>
                    <polygon id="Shape" points="0 103.167382 13 103.167382 0 89.888412"></polygon>
                    <polyline id="Shape" points="13 283.965665 13 297.244635 26 297.244635"></polyline>
                    <polyline id="Shape" points="13 155.261803 13 168.540773 26 168.540773"></polyline>
                    <polyline id="Shape" points="13 399.390558 13 412.669528 26 412.669528"></polyline>
                    <polyline id="Shape" points="25 141.982833 25 155.261803 38 155.261803"></polyline>
                    <polyline id="Shape" points="38 438.206009 38 451.484979 51 451.484979"></polyline>
                    <polyline id="Shape" points="38 219.613734 38 232.892704 51 232.892704"></polyline>
                    <polyline id="Shape" points="38 38.8154506 38 52.0944206 51 52.0944206"></polyline>
                    <polyline id="Shape" points="50 361.596567 50 374.875536 63 374.875536"></polyline>
                    <polyline id="Shape" points="63 77.6309013 63 90.9098712 76 90.9098712"></polyline>
                    <polyline id="Shape" points="75 128.703863 75 141.982833 88 141.982833"></polyline>
                    <polyline id="Shape" points="75 322.781116 75 336.060086 88 336.060086"></polyline>
                    <polyline id="Shape" points="88 52.0944206 88 65.3733906 101 65.3733906"></polyline>
                    <polygon id="Shape" points="88 0 88 13.27897 101 13.27897"></polygon>
                    <polygon id="Shape" points="100 476 111 476 100 464.763948"></polygon>
                    <polyline id="Shape" points="100 412.669528 100 425.948498 113 425.948498"></polyline>
                    <polyline id="Shape" points="100 296.223176 100 309.502146 113 309.502146"></polyline>
                    <polyline id="Shape" points="100 219.613734 100 232.892704 113 232.892704"></polyline>
                    <polyline id="Shape" points="113 245.150215 113 258.429185 126 258.429185"></polyline>
                    <polyline id="Shape" points="113 141.982833 113 155.261803 126 155.261803"></polyline>
                    <polyline id="Shape" points="138 103.167382 138 116.446352 151 116.446352"></polyline>
                    <polyline id="Shape" points="150 361.596567 150 374.875536 163 374.875536"></polyline>
                    <polyline id="Shape" points="150 89.888412 150 103.167382 163 103.167382"></polyline>
                    <polyline id="Shape" points="150 38.8154506 150 52.0944206 163 52.0944206"></polyline>
                    <polyline id="Shape" points="163 387.133047 163 400.412017 176 400.412017"></polyline>
                    <polyline id="Shape" points="163 128.703863 163 141.982833 176 141.982833"></polyline>
                    <polyline id="Shape" points="163 193.055794 163 206.334764 176 206.334764"></polyline>
                    <polyline id="Shape" points="175 438.206009 175 451.484979 188 451.484979"></polyline>
                    <polyline id="Shape" points="175 13.27897 175 26.5579399 188 26.5579399"></polyline>
                    <polyline id="Shape" points="188 309.502146 188 322.781116 201 322.781116"></polyline>
                    <polyline id="Shape" points="200 361.596567 200 374.875536 213 374.875536"></polyline>
                    <polyline id="Shape" points="200 245.150215 200 258.429185 213 258.429185"></polyline>
                    <polyline id="Shape" points="213 258.429185 213 271.708155 226 271.708155"></polyline>
                    <polyline id="Shape" points="213 231.871245 213 245.150215 226 245.150215"></polyline>
                    <polyline id="Shape" points="213 155.261803 213 168.540773 226 168.540773"></polyline>
                    <polyline id="Shape" points="225 412.669528 225 425.948498 238 425.948498"></polyline>
                    <polyline id="Shape" points="238 206.334764 238 219.613734 251 219.613734"></polyline>
                    <polyline id="Shape" points="238 25.5364807 238 38.8154506 251 38.8154506"></polyline>
                    <polyline id="Shape" points="250 373.854077 250 387.133047 263 387.133047"></polyline>
                    <polyline id="Shape" points="250 89.888412 250 103.167382 263 103.167382"></polyline>
                    <polyline id="Shape" points="263 231.871245 263 245.150215 276 245.150215"></polyline>
                    <polyline id="Shape" points="275 180.798283 275 194.077253 288 194.077253"></polyline>
                    <polygon id="Shape" points="275 0 275 13.27897 288 13.27897"></polygon>
                    <polyline id="Shape" points="275 451.484979 275 464.763948 288 464.763948"></polyline>
                    <polyline id="Shape" points="275 322.781116 275 336.060086 288 336.060086"></polyline>
                    <polyline id="Shape" points="288 52.0944206 288 65.3733906 301 65.3733906"></polyline>
                    <polyline id="Shape" points="300 335.038627 300 348.317597 313 348.317597"></polyline>
                    <polyline id="Shape" points="313 231.871245 313 245.150215 326 245.150215"></polyline>
                    <polygon id="Shape" points="325 77.6309013 338 77.6309013 325 64.3519313"></polygon>
                </g>
                <g id="pattern-copy-4" transform="translate(374.000000, 354.000000)">
                    <polygon id="Shape" points="0 476 11 476 0 464.763948"></polygon>
                    <polygon id="Shape" points="0 322.781116 13 322.781116 0 309.502146"></polygon>
                    <polygon id="Shape" points="0 38.8154506 13 38.8154506 0 25.5364807"></polygon>
                    <polygon id="Shape" points="0 103.167382 13 103.167382 0 89.888412"></polygon>
                    <polyline id="Shape" points="13 283.965665 13 297.244635 26 297.244635"></polyline>
                    <polyline id="Shape" points="13 155.261803 13 168.540773 26 168.540773"></polyline>
                    <polyline id="Shape" points="13 399.390558 13 412.669528 26 412.669528"></polyline>
                    <polyline id="Shape" points="25 141.982833 25 155.261803 38 155.261803"></polyline>
                    <polyline id="Shape" points="38 438.206009 38 451.484979 51 451.484979"></polyline>
                    <polyline id="Shape" points="38 219.613734 38 232.892704 51 232.892704"></polyline>
                    <polyline id="Shape" points="38 38.8154506 38 52.0944206 51 52.0944206"></polyline>
                    <polyline id="Shape" points="50 361.596567 50 374.875536 63 374.875536"></polyline>
                    <polyline id="Shape" points="63 77.6309013 63 90.9098712 76 90.9098712"></polyline>
                    <polyline id="Shape" points="75 128.703863 75 141.982833 88 141.982833"></polyline>
                    <polyline id="Shape" points="75 322.781116 75 336.060086 88 336.060086"></polyline>
                    <polyline id="Shape" points="88 52.0944206 88 65.3733906 101 65.3733906"></polyline>
                    <polygon id="Shape" points="88 0 88 13.27897 101 13.27897"></polygon>
                    <polygon id="Shape" points="100 476 111 476 100 464.763948"></polygon>
                    <polyline id="Shape" points="100 412.669528 100 425.948498 113 425.948498"></polyline>
                    <polyline id="Shape" points="100 296.223176 100 309.502146 113 309.502146"></polyline>
                    <polyline id="Shape" points="100 219.613734 100 232.892704 113 232.892704"></polyline>
                    <polyline id="Shape" points="113 245.150215 113 258.429185 126 258.429185"></polyline>
                    <polyline id="Shape" points="113 141.982833 113 155.261803 126 155.261803"></polyline>
                    <polyline id="Shape" points="138 103.167382 138 116.446352 151 116.446352"></polyline>
                    <polyline id="Shape" points="150 361.596567 150 374.875536 163 374.875536"></polyline>
                    <polyline id="Shape" points="150 89.888412 150 103.167382 163 103.167382"></polyline>
                    <polyline id="Shape" points="150 38.8154506 150 52.0944206 163 52.0944206"></polyline>
                    <polyline id="Shape" points="163 387.133047 163 400.412017 176 400.412017"></polyline>
                    <polyline id="Shape" points="163 128.703863 163 141.982833 176 141.982833"></polyline>
                    <polyline id="Shape" points="163 193.055794 163 206.334764 176 206.334764"></polyline>
                    <polyline id="Shape" points="175 438.206009 175 451.484979 188 451.484979"></polyline>
                    <polyline id="Shape" points="175 13.27897 175 26.5579399 188 26.5579399"></polyline>
                    <polyline id="Shape" points="188 309.502146 188 322.781116 201 322.781116"></polyline>
                    <polyline id="Shape" points="200 361.596567 200 374.875536 213 374.875536"></polyline>
                    <polyline id="Shape" points="200 245.150215 200 258.429185 213 258.429185"></polyline>
                    <polyline id="Shape" points="213 258.429185 213 271.708155 226 271.708155"></polyline>
                    <polyline id="Shape" points="213 231.871245 213 245.150215 226 245.150215"></polyline>
                    <polyline id="Shape" points="213 155.261803 213 168.540773 226 168.540773"></polyline>
                    <polyline id="Shape" points="225 412.669528 225 425.948498 238 425.948498"></polyline>
                    <polyline id="Shape" points="238 206.334764 238 219.613734 251 219.613734"></polyline>
                    <polyline id="Shape" points="238 25.5364807 238 38.8154506 251 38.8154506"></polyline>
                    <polyline id="Shape" points="250 373.854077 250 387.133047 263 387.133047"></polyline>
                    <polyline id="Shape" points="250 89.888412 250 103.167382 263 103.167382"></polyline>
                    <polyline id="Shape" points="263 231.871245 263 245.150215 276 245.150215"></polyline>
                    <polyline id="Shape" points="275 180.798283 275 194.077253 288 194.077253"></polyline>
                    <polygon id="Shape" points="275 0 275 13.27897 288 13.27897"></polygon>
                    <polyline id="Shape" points="275 451.484979 275 464.763948 288 464.763948"></polyline>
                    <polyline id="Shape" points="275 322.781116 275 336.060086 288 336.060086"></polyline>
                    <polyline id="Shape" points="288 52.0944206 288 65.3733906 301 65.3733906"></polyline>
                    <polyline id="Shape" points="300 335.038627 300 348.317597 313 348.317597"></polyline>
                    <polyline id="Shape" points="313 231.871245 313 245.150215 326 245.150215"></polyline>
                    <polygon id="Shape" points="325 77.6309013 338 77.6309013 325 64.3519313"></polygon>
                </g>
                <g id="pattern-copy-2" transform="translate(0.000000, 15.000000)">
                    <polyline id="Shape" points="38 438.206009 38 451.484979 51 451.484979"></polyline>
                    <polyline id="Shape" points="38 219.613734 38 232.892704 51 232.892704"></polyline>
                    <polyline id="Shape" points="38 38.8154506 38 52.0944206 51 52.0944206"></polyline>
                    <polyline id="Shape" points="50 361.596567 50 374.875536 63 374.875536"></polyline>
                    <polyline id="Shape" points="63 77.6309013 63 90.9098712 76 90.9098712"></polyline>
                    <polyline id="Shape" points="75 128.703863 75 141.982833 88 141.982833"></polyline>
                    <polyline id="Shape" points="75 322.781116 75 336.060086 88 336.060086"></polyline>
                    <polyline id="Shape" points="88 52.0944206 88 65.3733906 101 65.3733906"></polyline>
                    <polygon id="Shape" points="88 0 88 13.27897 101 13.27897"></polygon>
                    <polygon id="Shape" points="100 476 111 476 100 464.763948"></polygon>
                    <polyline id="Shape" points="100 412.669528 100 425.948498 113 425.948498"></polyline>
                    <polyline id="Shape" points="100 296.223176 100 309.502146 113 309.502146"></polyline>
                    <polyline id="Shape" points="100 219.613734 100 232.892704 113 232.892704"></polyline>
                    <polyline id="Shape" points="113 245.150215 113 258.429185 126 258.429185"></polyline>
                    <polyline id="Shape" points="113 141.982833 113 155.261803 126 155.261803"></polyline>
                    <polyline id="Shape" points="138 103.167382 138 116.446352 151 116.446352"></polyline>
                    <polyline id="Shape" points="150 361.596567 150 374.875536 163 374.875536"></polyline>
                    <polyline id="Shape" points="150 89.888412 150 103.167382 163 103.167382"></polyline>
                    <polyline id="Shape" points="150 38.8154506 150 52.0944206 163 52.0944206"></polyline>
                    <polyline id="Shape" points="163 387.133047 163 400.412017 176 400.412017"></polyline>
                    <polyline id="Shape" points="163 128.703863 163 141.982833 176 141.982833"></polyline>
                    <polyline id="Shape" points="163 193.055794 163 206.334764 176 206.334764"></polyline>
                    <polyline id="Shape" points="175 438.206009 175 451.484979 188 451.484979"></polyline>
                    <polyline id="Shape" points="175 13.27897 175 26.5579399 188 26.5579399"></polyline>
                    <polyline id="Shape" points="188 309.502146 188 322.781116 201 322.781116"></polyline>
                    <polyline id="Shape" points="200 361.596567 200 374.875536 213 374.875536"></polyline>
                    <polyline id="Shape" points="200 245.150215 200 258.429185 213 258.429185"></polyline>
                    <polyline id="Shape" points="213 258.429185 213 271.708155 226 271.708155"></polyline>
                    <polyline id="Shape" points="213 231.871245 213 245.150215 226 245.150215"></polyline>
                    <polyline id="Shape" points="213 155.261803 213 168.540773 226 168.540773"></polyline>
                    <polyline id="Shape" points="225 412.669528 225 425.948498 238 425.948498"></polyline>
                    <polyline id="Shape" points="238 206.334764 238 219.613734 251 219.613734"></polyline>
                    <polyline id="Shape" points="238 25.5364807 238 38.8154506 251 38.8154506"></polyline>
                    <polyline id="Shape" points="250 373.854077 250 387.133047 263 387.133047"></polyline>
                    <polyline id="Shape" points="250 89.888412 250 103.167382 263 103.167382"></polyline>
                    <polyline id="Shape" points="263 231.871245 263 245.150215 276 245.150215"></polyline>
                    <polyline id="Shape" points="275 180.798283 275 194.077253 288 194.077253"></polyline>
                    <polygon id="Shape" points="275 0 275 13.27897 288 13.27897"></polygon>
                    <polyline id="Shape" points="275 451.484979 275 464.763948 288 464.763948"></polyline>
                    <polyline id="Shape" points="275 322.781116 275 336.060086 288 336.060086"></polyline>
                    <polyline id="Shape" points="288 52.0944206 288 65.3733906 301 65.3733906"></polyline>
                    <polyline id="Shape" points="300 335.038627 300 348.317597 313 348.317597"></polyline>
                    <polyline id="Shape" points="313 231.871245 313 245.150215 326 245.150215"></polyline>
                    <polygon id="Shape" points="325 77.6309013 338 77.6309013 325 64.3519313"></polygon>
                </g>
                <g id="pattern-copy-6" transform="translate(0.000000, 354.000000)">
                    <polyline id="Shape" points="38 438.206009 38 451.484979 51 451.484979"></polyline>
                    <polyline id="Shape" points="38 219.613734 38 232.892704 51 232.892704"></polyline>
                    <polyline id="Shape" points="38 38.8154506 38 52.0944206 51 52.0944206"></polyline>
                    <polyline id="Shape" points="50 361.596567 50 374.875536 63 374.875536"></polyline>
                    <polyline id="Shape" points="63 77.6309013 63 90.9098712 76 90.9098712"></polyline>
                    <polyline id="Shape" points="75 128.703863 75 141.982833 88 141.982833"></polyline>
                    <polyline id="Shape" points="75 322.781116 75 336.060086 88 336.060086"></polyline>
                    <polyline id="Shape" points="88 52.0944206 88 65.3733906 101 65.3733906"></polyline>
                    <polygon id="Shape" points="88 0 88 13.27897 101 13.27897"></polygon>
                    <polygon id="Shape" points="100 476 111 476 100 464.763948"></polygon>
                    <polyline id="Shape" points="100 412.669528 100 425.948498 113 425.948498"></polyline>
                    <polyline id="Shape" points="100 296.223176 100 309.502146 113 309.502146"></polyline>
                    <polyline id="Shape" points="100 219.613734 100 232.892704 113 232.892704"></polyline>
                    <polyline id="Shape" points="113 245.150215 113 258.429185 126 258.429185"></polyline>
                    <polyline id="Shape" points="113 141.982833 113 155.261803 126 155.261803"></polyline>
                    <polyline id="Shape" points="138 103.167382 138 116.446352 151 116.446352"></polyline>
                    <polyline id="Shape" points="150 361.596567 150 374.875536 163 374.875536"></polyline>
                    <polyline id="Shape" points="150 89.888412 150 103.167382 163 103.167382"></polyline>
                    <polyline id="Shape" points="150 38.8154506 150 52.0944206 163 52.0944206"></polyline>
                    <polyline id="Shape" points="163 387.133047 163 400.412017 176 400.412017"></polyline>
                    <polyline id="Shape" points="163 128.703863 163 141.982833 176 141.982833"></polyline>
                    <polyline id="Shape" points="163 193.055794 163 206.334764 176 206.334764"></polyline>
                    <polyline id="Shape" points="175 438.206009 175 451.484979 188 451.484979"></polyline>
                    <polyline id="Shape" points="175 13.27897 175 26.5579399 188 26.5579399"></polyline>
                    <polyline id="Shape" points="188 309.502146 188 322.781116 201 322.781116"></polyline>
                    <polyline id="Shape" points="200 361.596567 200 374.875536 213 374.875536"></polyline>
                    <polyline id="Shape" points="200 245.150215 200 258.429185 213 258.429185"></polyline>
                    <polyline id="Shape" points="213 258.429185 213 271.708155 226 271.708155"></polyline>
                    <polyline id="Shape" points="213 231.871245 213 245.150215 226 245.150215"></polyline>
                    <polyline id="Shape" points="213 155.261803 213 168.540773 226 168.540773"></polyline>
                    <polyline id="Shape" points="225 412.669528 225 425.948498 238 425.948498"></polyline>
                    <polyline id="Shape" points="238 206.334764 238 219.613734 251 219.613734"></polyline>
                    <polyline id="Shape" points="238 25.5364807 238 38.8154506 251 38.8154506"></polyline>
                    <polyline id="Shape" points="250 373.854077 250 387.133047 263 387.133047"></polyline>
                    <polyline id="Shape" points="250 89.888412 250 103.167382 263 103.167382"></polyline>
                    <polyline id="Shape" points="263 231.871245 263 245.150215 276 245.150215"></polyline>
                    <polyline id="Shape" points="275 180.798283 275 194.077253 288 194.077253"></polyline>
                    <polygon id="Shape" points="275 0 275 13.27897 288 13.27897"></polygon>
                    <polyline id="Shape" points="275 451.484979 275 464.763948 288 464.763948"></polyline>
                    <polyline id="Shape" points="275 322.781116 275 336.060086 288 336.060086"></polyline>
                    <polyline id="Shape" points="288 52.0944206 288 65.3733906 301 65.3733906"></polyline>
                    <polyline id="Shape" points="300 335.038627 300 348.317597 313 348.317597"></polyline>
                    <polyline id="Shape" points="313 231.871245 313 245.150215 326 245.150215"></polyline>
                    <polygon id="Shape" points="325 77.6309013 338 77.6309013 325 64.3519313"></polygon>
                </g>
            </g>
        </g>
    </g>
</svg>