<?xml version="1.0" encoding="UTF-8"?>
<svg width="21px" height="17px" viewBox="0 0 21 17" version="1.1" xmlns="http://www.w3.org/2000/svg" xmlns:xlink="http://www.w3.org/1999/xlink">
    <!-- Generator: Sketch 51.2 (57519) - http://www.bohemiancoding.com/sketch -->
    <title>Menu - simple-line-icons</title>
    <desc>Created with Sketch.</desc>
    <defs></defs>
    <g id="Symbols" stroke="none" stroke-width="1" fill="none" fill-rule="evenodd">
        <g id="Nav-Bar" transform="translate(-975.000000, -50.000000)" fill="#FFFFFF">
            <g id="Group-2">
                <path d="M975.553711,52.2910156 C975.471679,52.195312 975.410156,52.0961919 975.369141,51.9936523 C975.328125,51.8911128 975.307617,51.7714851 975.307617,51.6347656 C975.307617,51.5117181 975.328125,51.3955084 975.369141,51.2861328 C975.410156,51.1767573 975.471679,51.0810551 975.553711,50.9990234 C975.635743,50.9169918 975.731445,50.855469 975.84082,50.8144531 C975.950196,50.7734373 976.066406,50.7529297 976.189453,50.7529297 L994.913086,50.7529297 C995.036133,50.7529297 995.152343,50.7734373 995.261719,50.8144531 C995.371094,50.855469 995.466796,50.9169918 995.548828,50.9990234 C995.63086,51.0810551 995.692383,51.1767573 995.733398,51.2861328 C995.774414,51.3955084 995.794922,51.5117181 995.794922,51.6347656 C995.794922,51.7714851 995.774414,51.8911128 995.733398,51.9936523 C995.692383,52.0961919 995.63086,52.195312 995.548828,52.2910156 C995.466796,52.3730473 995.371094,52.4345701 995.261719,52.4755859 C995.152343,52.5166018 995.036133,52.5371094 994.913086,52.5371094 L976.189453,52.5371094 C976.066406,52.5371094 975.950196,52.5166018 975.84082,52.4755859 C975.731445,52.4345701 975.635743,52.3730473 975.553711,52.2910156 Z M995.548828,58.1357422 C995.63086,58.2177738 995.692383,58.313476 995.733398,58.4228516 C995.774414,58.5322271 995.794922,58.6484369 995.794922,58.7714844 C995.794922,58.8945319 995.774414,59.0107416 995.733398,59.1201172 C995.692383,59.2294927 995.63086,59.3251949 995.548828,59.4072266 C995.466796,59.4892582 995.371094,59.550781 995.261719,59.5917969 C995.152343,59.6328127 995.036133,59.6533203 994.913086,59.6533203 L976.189453,59.6533203 C976.066406,59.6533203 975.950196,59.6328127 975.84082,59.5917969 C975.731445,59.550781 975.635743,59.4892582 975.553711,59.4072266 C975.471679,59.3251949 975.410156,59.2294927 975.369141,59.1201172 C975.328125,59.0107416 975.307617,58.8945319 975.307617,58.7714844 C975.307617,58.6484369 975.328125,58.5322271 975.369141,58.4228516 C975.410156,58.313476 975.471679,58.2177738 975.553711,58.1357422 C975.635743,58.0537105 975.731445,57.9921877 975.84082,57.9511719 C975.950196,57.910156 976.066406,57.8896484 976.189453,57.8896484 L994.913086,57.8896484 C995.036133,57.8896484 995.152343,57.910156 995.261719,57.9511719 C995.371094,57.9921877 995.466796,58.0537105 995.548828,58.1357422 Z M995.548828,65.2519531 C995.63086,65.3339848 995.692383,65.429687 995.733398,65.5390625 C995.774414,65.648438 995.794922,65.7646478 995.794922,65.8876953 C995.794922,66.0244147 995.774414,66.1440425 995.733398,66.246582 C995.692383,66.3491216 995.63086,66.4482417 995.548828,66.5439453 C995.466796,66.625977 995.371094,66.6874998 995.261719,66.7285156 C995.152343,66.7695315 995.036133,66.7900391 994.913086,66.7900391 L976.189453,66.7900391 C976.066406,66.7900391 975.950196,66.7695315 975.84082,66.7285156 C975.731445,66.6874998 975.635743,66.625977 975.553711,66.5439453 C975.471679,66.4482417 975.410156,66.3491216 975.369141,66.246582 C975.328125,66.1440425 975.307617,66.0244147 975.307617,65.8876953 C975.307617,65.7646478 975.328125,65.648438 975.369141,65.5390625 C975.410156,65.429687 975.471679,65.3339848 975.553711,65.2519531 C975.635743,65.1699215 975.731445,65.1083986 975.84082,65.0673828 C975.950196,65.026367 976.066406,65.0058594 976.189453,65.0058594 L994.913086,65.0058594 C995.036133,65.0058594 995.152343,65.026367 995.261719,65.0673828 C995.371094,65.1083986 995.466796,65.1699215 995.548828,65.2519531 Z" id="Menu---simple-line-icons"></path>
            </g>
        </g>
    </g>
</svg>